<svg width="141" height="119" viewBox="0 0 141 119" fill="none" xmlns="http://www.w3.org/2000/svg">
<path d="M118.969 18.5938H39.6562C37.319 18.5938 35.0775 19.3773 33.4249 20.7721C31.7722 22.1669 30.8438 24.0587 30.8438 26.0312V33.4688H22.0312C19.694 33.4688 17.4525 34.2523 15.7999 35.6471C14.1472 37.0419 13.2188 38.9337 13.2188 40.9062V92.9688C13.2188 94.9413 14.1472 96.8331 15.7999 98.2279C17.4525 99.6227 19.694 100.406 22.0312 100.406H101.344C103.681 100.406 105.922 99.6227 107.575 98.2279C109.228 96.8331 110.156 94.9413 110.156 92.9688V85.5312H118.969C121.306 85.5312 123.547 84.7477 125.2 83.3529C126.853 81.9581 127.781 80.0663 127.781 78.0938V26.0312C127.781 24.0587 126.853 22.1669 125.2 20.7721C123.547 19.3773 121.306 18.5938 118.969 18.5938ZM39.6562 26.0312H118.969V55.2002L113.422 50.5239C112.604 49.8331 111.632 49.2851 110.563 48.9112C109.494 48.5373 108.348 48.3449 107.19 48.3449C106.033 48.3449 104.887 48.5373 103.817 48.9112C102.748 49.2851 101.777 49.8331 100.958 50.5239L89.9426 59.8207L65.7082 39.3676C64.0557 37.9739 61.8151 37.1909 59.4789 37.1909C57.1426 37.1909 54.902 37.9739 53.2495 39.3676L39.6562 50.84V26.0312ZM101.344 92.9688H22.0312V40.9062H30.8438V78.0938C30.8438 80.0663 31.7722 81.9581 33.4249 83.3529C35.0775 84.7477 37.319 85.5312 39.6562 85.5312H101.344V92.9688ZM118.969 78.0938H39.6562V61.3594L59.4844 44.625L86.8362 67.7091C87.6624 68.406 88.7827 68.7975 89.9508 68.7975C91.1189 68.7975 92.2393 68.406 93.0655 67.7091L107.199 55.7812L118.969 65.7196V78.0938ZM88.125 39.0469C88.125 37.9436 88.5126 36.8652 89.2389 35.9478C89.9651 35.0305 90.9974 34.3156 92.2051 33.8934C93.4128 33.4712 94.7417 33.3607 96.0238 33.5759C97.3059 33.7912 98.4836 34.3224 99.4079 35.1025C100.332 35.8827 100.962 36.8766 101.217 37.9586C101.472 39.0407 101.341 40.1623 100.841 41.1815C100.34 42.2008 99.4932 43.072 98.4063 43.6849C97.3194 44.2978 96.0416 44.625 94.7344 44.625C92.9815 44.625 91.3003 44.0373 90.0608 42.9912C88.8213 41.9451 88.125 40.5263 88.125 39.0469Z" fill="#2E3F50"/>
</svg>
